<svg width="22" height="18" viewBox="0 0 22 18" fill="none" xmlns="http://www.w3.org/2000/svg">
<path fill-rule="evenodd" clip-rule="evenodd" d="M6.64398 0.0637428C6.18328 0.242246 5.79467 0.651715 5.03091 1.76337C4.53352 2.48739 4.06675 3.22922 3.5344 4.1419C3.30183 4.54058 3.08793 4.89378 3.05907 4.92681C3.01649 4.97556 2.98552 4.94901 2.89472 4.78578C2.66534 4.37345 2.27316 4.11571 1.83332 4.08817C1.47 4.06538 1.2266 4.18956 1.02801 4.49886C0.803574 4.84848 0.812478 4.78917 0.669807 6.88287C0.60301 7.86323 0.399134 9.67127 0.174311 11.2775C-0.127804 13.4356 -0.100578 13.6162 0.768864 15.219C1.17993 15.9768 2.21372 17.7036 2.35277 17.8646C2.39875 17.918 2.91421 17.5684 2.89008 17.5003C2.87997 17.4717 2.70242 17.1761 2.49553 16.8434C1.90924 15.9005 1.2115 14.6655 0.969471 14.1422C0.83708 13.856 0.721895 13.5268 0.680732 13.3172L0.612258 12.9685L0.83579 11.3415C1.1247 9.23838 1.30212 7.57518 1.36053 6.42279C1.41563 5.33442 1.46381 5.02213 1.60058 4.86669C1.71078 4.74147 1.76979 4.73046 1.94881 4.80172C2.30692 4.94421 2.53751 5.40623 2.75743 6.42184C3.02716 7.6676 3.14234 8.97207 3.11654 10.4892L3.09933 11.5006L3.33732 11.4752C3.91664 11.4134 4.57361 11.7206 5.4033 12.4414L5.59686 12.6095L5.3818 12.3703C4.79318 11.7155 3.98473 11.2337 3.47259 11.2325L3.32686 11.2322L3.35663 10.9264C3.51298 9.32151 3.4944 7.94437 3.29744 6.54507L3.22067 5.99941L3.91109 4.82148C4.74256 3.40292 4.9706 3.03894 5.59995 2.12581C6.2201 1.22605 6.46613 0.939811 6.74514 0.793339C7.0307 0.643469 7.1827 0.643378 7.32486 0.793112C7.43265 0.906647 7.43536 0.923456 7.41437 1.3481C7.36159 2.41563 6.71521 4.06067 5.55114 6.09002C4.64754 7.66524 4.64371 7.65886 5.64623 6.24778C6.76162 4.6779 7.27905 3.81588 7.63807 2.92926C7.82689 2.46306 8.02703 1.71376 8.02703 1.47314C8.02703 1.16045 8.27688 1.01302 8.77229 1.03346C8.84601 1.03649 8.94559 1.09294 9.0252 1.17685C9.15174 1.31014 9.1557 1.32627 9.13329 1.61857C9.06297 2.53515 8.31641 4.68733 7.39759 6.62236C7.19944 7.03976 7.04507 7.38123 7.05457 7.38123C7.08425 7.38123 7.82706 6.03267 8.19004 5.31983C8.60467 4.50561 9.02473 3.52525 9.27712 2.78274C9.37876 2.48372 9.4776 2.21991 9.49674 2.19649C9.51696 2.17175 9.60965 2.2398 9.71795 2.35886C9.95662 2.62123 10.0261 2.86896 9.9931 3.33941C9.94768 3.986 9.33373 5.90038 8.65465 7.51284C8.54549 7.77212 8.462 7.99045 8.46919 7.99797C8.48669 8.01641 9.1677 6.70735 9.44994 6.11268C9.57412 5.85104 9.79511 5.3462 9.94105 4.99083C10.1963 4.36906 10.2091 4.34795 10.2806 4.43108C10.3214 4.47861 10.4016 4.65725 10.4589 4.82805C10.7634 5.73687 10.4111 7.18655 9.36521 9.32935L8.91187 10.2581L8.91032 10.69L8.90877 11.1219L9.26129 11.8906C9.71881 12.8881 9.75524 13.0093 9.77894 13.6107C9.80191 14.1941 9.71081 14.7448 9.46177 15.5281C9.29454 16.054 8.89905 16.963 8.64842 17.3977C8.56175 17.5479 8.49779 17.6773 8.50626 17.6854C8.51474 17.6933 8.63418 17.7751 8.77165 17.8671C8.95548 17.9901 9.03617 18.0217 9.07639 17.9865C9.16938 17.9052 9.81632 16.5344 9.97619 16.0798C10.4736 14.6658 10.5756 13.5959 10.303 12.653C10.2535 12.4821 10.0676 12.0344 9.8897 11.6582C9.42749 10.6804 9.42612 10.7442 9.93125 9.70113C10.3923 8.74908 10.6672 8.09039 10.8474 7.50581C10.9146 7.28781 10.9849 7.10939 11.0037 7.10939C11.0225 7.10939 11.0379 7.1301 11.0379 7.15542C11.0379 7.33134 11.5133 8.53397 11.9483 9.45856C12.576 10.7925 12.5675 10.6693 12.1 11.6582C11.7331 12.4344 11.6144 12.8014 11.5563 13.3399C11.4811 14.0364 11.6481 15.048 12.0048 16.0572C12.1722 16.5309 12.8187 17.9038 12.9133 17.9865C12.9535 18.0217 13.0342 17.9901 13.218 17.8671C13.3555 17.7751 13.4749 17.6933 13.4834 17.6854C13.4919 17.6773 13.4311 17.5524 13.3483 17.4077C12.9412 16.6957 12.5471 15.703 12.3446 14.8792C12.2396 14.4522 12.222 14.2933 12.2214 13.7693C12.2206 13.0286 12.2423 12.9478 12.7279 11.8906L13.0809 11.1219L13.0794 10.69L13.0778 10.2581L12.6245 9.32935C11.848 7.73864 11.4826 6.61461 11.4387 5.68228C11.4183 5.24739 11.4273 5.14663 11.5097 4.89125C11.5615 4.73028 11.6434 4.54027 11.6916 4.469L11.7792 4.33943L12.068 5.03351C12.2269 5.41525 12.4392 5.90088 12.5399 6.11268C12.8033 6.66676 13.5042 8.01523 13.5201 7.99846C13.5275 7.99063 13.4442 7.77212 13.335 7.51284C12.6734 5.94179 12.0451 3.99361 11.997 3.36392C11.957 2.83955 12.0793 2.48069 12.3731 2.26032C12.4695 2.18797 12.5052 2.17927 12.5196 2.22453C12.9473 3.57517 13.632 5.09653 14.5346 6.70165C14.9226 7.39178 15.0246 7.53803 14.8271 7.12126C14.5909 6.62295 14.196 5.65768 13.8012 4.61407C13.182 2.97723 12.8444 1.86572 12.8444 1.4644C12.8444 1.09217 13.2115 0.930297 13.6937 1.08982C13.8656 1.14672 13.9627 1.28499 13.9627 1.47314C13.9627 1.71376 14.1628 2.46306 14.3516 2.92926C14.5584 3.43985 14.9241 4.1279 15.333 4.77536C15.5987 5.19611 17.0128 7.21206 17.1132 7.31327C17.1744 7.37497 17.1439 7.3192 16.7786 6.70165C15.6655 4.81989 15.1851 3.87981 14.892 3.00927C14.6177 2.19472 14.4568 1.17721 14.5606 0.913443C14.6659 0.645462 14.9648 0.614429 15.3211 0.834431C15.7549 1.10219 16.7006 2.4695 18.0788 4.82148L18.7691 5.99941L18.6909 6.54308C18.5457 7.55384 18.4983 8.75389 18.5612 9.83591C18.592 10.3671 18.6268 10.8986 18.6384 11.017L18.6596 11.2322L18.5155 11.2325C18.005 11.2338 17.1957 11.7164 16.6079 12.3703L16.3928 12.6095L16.5864 12.4414C17.4161 11.7206 18.073 11.4134 18.6524 11.4752L18.8904 11.5006L18.8731 10.4892C18.8473 8.97207 18.9625 7.6676 19.2323 6.42184C19.4522 5.40623 19.6828 4.94421 20.0409 4.80172C20.2199 4.73046 20.2789 4.74147 20.3891 4.86669C20.5263 5.02263 20.5755 5.33914 20.6291 6.41156C20.6864 7.5557 20.8665 9.24789 21.154 11.3415L21.3774 12.9685L21.309 13.3172C21.2678 13.5268 21.1526 13.856 21.0202 14.1422C20.7782 14.6655 20.0805 15.9005 19.4942 16.8434C19.2873 17.1761 19.1097 17.4717 19.0996 17.5003C19.0755 17.5684 19.5909 17.918 19.6369 17.8646C19.776 17.7036 20.8098 15.9768 21.2208 15.219C22.0251 13.7364 22.1119 13.3156 21.9034 11.9118C21.6417 10.149 21.4013 8.07816 21.3199 6.88287C21.1772 4.78886 21.1862 4.84848 20.9617 4.49886C20.7631 4.18956 20.5197 4.06538 20.1564 4.08817C19.7165 4.11571 19.3243 4.37345 19.095 4.78578C19.0043 4.94865 18.9732 4.97547 18.931 4.92681C18.9024 4.89378 18.6886 4.54058 18.4561 4.1419C17.9264 3.23402 17.4589 2.49138 16.9588 1.76337C16.0291 0.410238 15.6173 0.0425851 14.9881 0.00416624C14.6296 -0.0177162 14.4524 0.0429929 14.2049 0.272464L14.0098 0.453323L13.763 0.377708C13.2767 0.228835 12.7252 0.377436 12.4339 0.735847C12.2901 0.912809 12.2384 1.04977 12.1811 1.4051C12.1608 1.53064 12.1109 1.60104 11.9624 1.71335C11.4946 2.06723 11.2326 2.81137 11.3366 3.49118C11.3773 3.75766 11.3758 3.76455 11.2305 3.96503C11.1494 4.07693 11.0632 4.20324 11.039 4.24578C10.9974 4.31868 10.9923 4.31868 10.9507 4.24578C10.9265 4.20324 10.8402 4.07684 10.7591 3.96489C10.6153 3.7665 10.6126 3.75472 10.6511 3.50549C10.7049 3.15687 10.6371 2.63867 10.4967 2.32597C10.3837 2.07435 10.1743 1.81361 9.95202 1.64766C9.8598 1.57884 9.82372 1.50096 9.78741 1.29256C9.68608 0.711201 9.33226 0.387087 8.73423 0.327918C8.55396 0.310068 8.39719 0.325517 8.22565 0.378071L7.97765 0.454002L7.80405 0.288774C7.70857 0.197937 7.56542 0.0949581 7.48602 0.0600277C7.30606 -0.0191659 6.85285 -0.0171724 6.64398 0.0637428Z" fill="#C4CECF"/>
</svg>
