<svg width="23" height="22" viewBox="0 0 23 22" fill="none" xmlns="http://www.w3.org/2000/svg">
<path d="M21.0833 16.041H14.375" stroke="#292D32" stroke-width="1.5" stroke-miterlimit="10" stroke-linecap="round" stroke-linejoin="round"/>
<path d="M4.79175 16.041H1.91675" stroke="#292D32" stroke-width="1.5" stroke-miterlimit="10" stroke-linecap="round" stroke-linejoin="round"/>
<path d="M21.0833 5.95898H18.2083" stroke="#292D32" stroke-width="1.5" stroke-miterlimit="10" stroke-linecap="round" stroke-linejoin="round"/>
<path d="M8.62508 5.95898H1.91675" stroke="#292D32" stroke-width="1.5" stroke-miterlimit="10" stroke-linecap="round" stroke-linejoin="round"/>
<path d="M6.70841 13.291H12.4584C13.5126 13.291 14.3751 13.7493 14.3751 15.1243V16.9577C14.3751 18.3327 13.5126 18.791 12.4584 18.791H6.70841C5.65425 18.791 4.79175 18.3327 4.79175 16.9577V15.1243C4.79175 13.7493 5.65425 13.291 6.70841 13.291Z" stroke="#292D32" stroke-width="1.5" stroke-miterlimit="10" stroke-linecap="round" stroke-linejoin="round"/>
<path d="M10.5417 3.20898H16.2917C17.3458 3.20898 18.2083 3.66732 18.2083 5.04232V6.87565C18.2083 8.25065 17.3458 8.70898 16.2917 8.70898H10.5417C9.4875 8.70898 8.625 8.25065 8.625 6.87565V5.04232C8.625 3.66732 9.4875 3.20898 10.5417 3.20898Z" stroke="#292D32" stroke-width="1.5" stroke-miterlimit="10" stroke-linecap="round" stroke-linejoin="round"/>
</svg>
