<svg width="17" height="18" viewBox="0 0 17 18" fill="none" xmlns="http://www.w3.org/2000/svg">
<path fill-rule="evenodd" clip-rule="evenodd" d="M7.98331 0.0102262C7.75283 0.0563847 7.34934 0.210428 7.10368 0.345974C6.78099 0.524037 1.14681 5.18977 0.82237 5.54761C0.384142 6.03092 0.10847 6.66563 0.0312057 7.36926C0.00433804 7.61386 -0.00559821 9.08127 0.00302647 11.5342C0.0161026 15.2621 0.0176526 15.3264 0.101833 15.6402C0.348888 16.5611 0.877497 17.2425 1.67132 17.6633C2.35029 18.0232 1.87247 17.9997 8.5 17.9997C15.1275 17.9997 14.6497 18.0232 15.3287 17.6633C16.1183 17.2448 16.6525 16.5563 16.898 15.641C16.9824 15.3262 16.9839 15.2646 16.997 11.5342C17.0056 9.08127 16.9957 7.61386 16.9688 7.36926C16.8948 6.69584 16.6339 6.0731 16.2251 5.5944C16.0666 5.40872 10.8081 0.995457 10.2217 0.555926C9.70082 0.165483 9.28222 0.0231991 8.59936 0.00449298C8.31519 -0.00329077 8.03796 -0.000696147 7.98331 0.0102262ZM9.00679 0.948252C9.11279 0.972189 9.31044 1.0522 9.44601 1.12611C9.74712 1.29019 15.3435 5.93429 15.5949 6.22873C15.6921 6.3426 15.8258 6.55188 15.8921 6.69379C16.137 7.2189 16.1349 7.17617 16.1225 11.4233L16.1112 15.2796L16.0079 15.5768C15.7659 16.2734 15.3312 16.726 14.659 16.9814L14.4021 17.079H8.5H2.59786L2.34103 16.9814C1.66882 16.726 1.23413 16.2734 0.992082 15.5768L0.888824 15.2796L0.877537 11.4233C0.865057 7.17617 0.86299 7.2189 1.10794 6.69379C1.17415 6.55188 1.30623 6.34457 1.40146 6.23304C1.62458 5.97174 7.24286 1.29814 7.5204 1.14293C7.63598 1.07832 7.81873 0.999976 7.92648 0.968841C8.16499 0.899917 8.74392 0.888911 9.00679 0.948252ZM6.21021 14.0018C5.9469 14.1155 5.87504 14.492 6.07229 14.7244L6.18827 14.8611H8.5H10.8117L10.9277 14.7244C11.0881 14.5354 11.0881 14.308 10.9277 14.1189L10.8118 13.9823L8.55294 13.9739C7.31063 13.9693 6.25639 13.9819 6.21021 14.0018Z" fill="#C4CECF"/>
</svg>
