<svg width="17" height="18" viewBox="0 0 17 18" fill="none" xmlns="http://www.w3.org/2000/svg">
<path fill-rule="evenodd" clip-rule="evenodd" d="M7.9709 0.0484379C7.42552 0.158572 7.1474 0.317385 5.86663 1.24989C1.27969 4.58951 1.16434 4.67571 0.887847 4.97029C0.40117 5.48875 0.112519 6.12969 0.0323861 6.86981C0.0041649 7.13035 -0.00565289 8.60954 0.00309172 11.2728C0.0160894 15.2286 0.0174407 15.2879 0.101866 15.6068C0.349219 16.541 0.877712 17.2318 1.67156 17.6585C2.35058 18.0235 1.87273 17.9997 8.50078 17.9997C15.1288 17.9997 14.651 18.0235 15.33 17.6585C16.1196 17.2341 16.6537 16.5361 16.8995 15.6076C16.9842 15.2876 16.9854 15.2326 16.9976 11.2771C17.0051 8.86045 16.9946 7.12356 16.9712 6.89994C16.9229 6.43755 16.7729 5.94991 16.5617 5.56815C16.2408 4.9882 16.054 4.83295 12.9551 2.57218C11.3714 1.4169 9.94086 0.400569 9.77603 0.313693C9.24002 0.0312494 8.5548 -0.0694625 7.9709 0.0484379ZM10.8976 14.0558C11.0808 14.2514 11.0739 14.5142 10.8806 14.7065C10.792 14.7946 10.7712 14.7954 8.50078 14.7954C6.23033 14.7954 6.20962 14.7946 6.12094 14.7065C5.92764 14.5142 5.92077 14.2514 6.10397 14.0558L6.20624 13.9466H8.50078H10.7953L10.8976 14.0558Z" fill="#114538"/>
</svg>
