<svg width="14" height="18" viewBox="0 0 14 18" fill="none" xmlns="http://www.w3.org/2000/svg">
<path fill-rule="evenodd" clip-rule="evenodd" d="M1.29512 0.0411121C0.647792 0.196671 0.131512 0.763926 0.0355413 1.42509C-0.00992463 1.73832 -0.0127328 13.7168 0.0326947 13.7168C0.0512349 13.7168 0.0880461 13.6909 0.114433 13.6592C0.282949 13.4569 0.971939 13.1706 1.42364 13.1151L1.67216 13.0845V6.55184V0.0191575L1.55676 0.0125673C1.4933 0.00892738 1.37555 0.0218013 1.29512 0.0411121ZM2.47847 0.0478938C2.46839 0.0742546 2.46462 3.01827 2.47004 6.59019L2.47993 13.0846L8.17278 13.1038C11.3039 13.1143 13.8916 13.1315 13.9233 13.1421C13.9745 13.159 13.981 12.4307 13.981 6.73966C13.981 -0.223224 13.9943 0.195828 13.7701 0.0639479C13.67 0.0050193 13.2238 0 8.07908 0C3.64862 0 2.49297 0.00988529 2.47847 0.0478938ZM11.3379 1.68874C11.4769 1.73697 11.577 1.87238 11.577 2.01208C11.577 2.23664 11.7572 2.41385 11.9856 2.41385C12.0419 2.41385 12.1304 2.46109 12.1954 2.52584L12.3078 2.63784V6.55188V10.4659L12.1954 10.5779C12.1304 10.6427 12.0419 10.6899 11.9856 10.6899C11.7673 10.6899 11.577 10.8666 11.577 11.0693C11.577 11.2065 11.4921 11.3363 11.3624 11.3975C11.25 11.4507 10.8868 11.4564 8.17198 11.4473L5.10845 11.437L4.99625 11.3119C4.93451 11.2431 4.88401 11.1431 4.88401 11.0897C4.88401 10.8671 4.70291 10.6899 4.47535 10.6899C4.41908 10.6899 4.33061 10.6427 4.2656 10.5779L4.15317 10.4659V6.55188V2.63784L4.2656 2.52584C4.33061 2.46109 4.41908 2.41385 4.47535 2.41385C4.70091 2.41385 4.88401 2.23676 4.88401 2.01863C4.88401 1.90912 5.01506 1.73123 5.12972 1.6851C5.25404 1.63506 11.1933 1.63854 11.3379 1.68874ZM8.008 2.53784C7.94753 2.56684 7.80021 2.81704 7.5358 3.33985L7.15149 4.09971H6.96159C6.31972 4.09971 5.76871 4.66835 5.76871 5.33074V5.5627L5.42333 5.96121C5.23339 6.18037 5.06706 6.40295 5.05375 6.45578C5.0111 6.62502 5.07064 6.7356 5.42333 7.14254L5.76871 7.54106V7.77302C5.76871 8.43583 6.31968 9.00404 6.9624 9.00404H7.15307L7.53749 9.76915C7.93499 10.5602 8.00673 10.6516 8.23048 10.6516C8.45424 10.6516 8.52597 10.5602 8.92347 9.76915L9.30789 9.00404H9.49857C10.1418 9.00404 10.6923 8.43587 10.6923 7.7719V7.53887L11.0136 7.1699C11.1904 6.96698 11.3548 6.76326 11.3791 6.71724C11.4855 6.51505 11.4269 6.39352 10.9852 5.90052L10.6935 5.57484L10.6929 5.33683C10.6911 4.66513 10.1439 4.09971 9.49549 4.09971H9.30174L8.95651 3.38728C8.76665 2.99547 8.56636 2.63339 8.51143 2.58266C8.40173 2.48136 8.16886 2.46063 8.008 2.53784ZM8.85812 5.05399C9.17238 5.17709 9.53969 5.52672 9.70205 5.85726C9.82071 6.09888 9.82679 6.13271 9.82679 6.55188C9.82679 6.97012 9.82052 7.00526 9.70332 7.24385C9.55065 7.55454 9.20554 7.89352 8.8952 8.03766C8.69457 8.1308 8.62956 8.14095 8.23048 8.14141C7.80913 8.14191 7.77602 8.13605 7.53315 8.0177C7.20346 7.857 6.85139 7.49086 6.72484 7.17706C6.65056 6.99288 6.63498 6.88437 6.63498 6.55188C6.63498 6.05305 6.72091 5.80921 7.00652 5.49798C7.2522 5.2302 7.37806 5.14165 7.66947 5.03157C7.98454 4.91257 8.52305 4.92272 8.85812 5.05399ZM8.05739 5.74396C7.65866 5.84347 7.41017 6.15378 7.4104 6.55188C7.41067 7.01951 7.76136 7.36887 8.23048 7.36887C9.09903 7.36887 9.37352 6.20072 8.5959 5.81374C8.44593 5.73914 8.2029 5.7076 8.05739 5.74396ZM1.17161 13.9773C0.195903 14.3134 -0.25164 15.3591 0.191364 16.2677C0.330839 16.5537 0.685988 16.9022 0.968977 17.0306C1.22904 17.1486 1.57188 17.2028 2.06127 17.2032L2.45035 17.2035L2.46901 17.463C2.48989 17.754 2.53763 17.854 2.70172 17.9505C2.88208 18.0567 3.02702 18.0039 3.59515 17.6251L4.12097 17.2745L4.68487 17.6451C5.21269 17.992 5.25866 18.0144 5.40298 17.9951C5.51034 17.9808 5.58927 17.9387 5.66293 17.8566C5.75694 17.7518 5.76871 17.7089 5.76871 17.4711V17.2035L9.68255 17.2034C13.3316 17.2033 13.6055 17.1988 13.731 17.1363C13.9907 17.0071 14.0002 16.9523 14 15.5751C13.9999 14.8528 13.9836 14.2907 13.9603 14.207C13.9385 14.129 13.8757 14.0299 13.8207 13.9867C13.7208 13.9085 13.7091 13.9084 7.54253 13.9096C1.78282 13.9108 1.3514 13.9154 1.17161 13.9773ZM4.92247 15.9605C4.92247 16.6113 4.91228 16.7803 4.87439 16.7575C4.84797 16.7415 4.6986 16.6457 4.54251 16.5445C4.15809 16.2953 4.07331 16.2979 3.66339 16.5713C3.4896 16.6872 3.33828 16.782 3.32717 16.782C3.31605 16.782 3.30693 16.4113 3.30693 15.9582V15.1344H4.1147H4.92247V15.9605ZM11.6757 15.1905C11.769 15.2294 11.8286 15.2896 11.869 15.3861C11.945 15.5672 11.9097 15.7197 11.7635 15.8422L11.648 15.9391H8.70834H5.76871V15.5368V15.1344H8.65483C11.1017 15.1344 11.5615 15.143 11.6757 15.1905Z" fill="#C4CECF"/>
</svg>
