<svg width="20" height="16" viewBox="0 0 20 16" fill="none" xmlns="http://www.w3.org/2000/svg">
<path id="journal 1 (Traced)" fill-rule="evenodd" clip-rule="evenodd" d="M2.45791 0.114068L2.34373 0.228137V1.2848V2.34146H1.28604H0.228357L0.114179 2.45553L0 2.5696V8.58537V14.6011L0.114179 14.7152L0.228357 14.8293H3.75774C5.96952 14.8293 7.40822 14.8444 7.61142 14.8699C8.36747 14.9646 9.00727 15.2608 9.62133 15.8006C9.81101 15.9673 9.87308 16 9.99992 16C10.127 16 10.1884 15.9675 10.3785 15.7995C10.7123 15.5044 11.1337 15.2399 11.4857 15.1042C12.0716 14.8785 12.196 14.8613 13.3929 14.8401L14.5007 14.8204L14.6225 14.7118C14.7222 14.6228 14.7442 14.5734 14.7442 14.439C14.7442 14.3032 14.7223 14.2555 14.6175 14.1619L14.4908 14.0488H13.4411C12.6499 14.0488 12.3116 14.0639 12.0676 14.1101C11.6369 14.1918 11.2105 14.3303 10.8886 14.4932C10.7436 14.5666 10.6249 14.6135 10.6249 14.5974C10.6249 14.5235 10.9488 14.0873 11.1377 13.9068C11.6702 13.3982 11.7105 13.387 14.787 12.8971C16.2245 12.6682 17.4309 12.4648 17.4678 12.445C17.6636 12.3404 17.6561 12.48 17.6561 8.91778V5.59926L18.4373 4.81951L19.2186 4.03977V9.04425V14.0488H18.4001C17.8948 14.0488 17.5461 14.065 17.4886 14.0911C17.2414 14.2037 17.2078 14.5459 17.4261 14.7294L17.5449 14.8293H18.6582H19.7715L19.8857 14.7152L19.9998 14.6011V8.47836C19.9998 1.73034 20.0149 2.1506 19.7593 1.74841C19.5977 1.49413 19.3713 1.3006 19.0671 1.1566C18.8329 1.04574 18.7734 1.03422 18.4373 1.03508C18.1382 1.03586 18.0293 1.05288 17.8757 1.12289C17.7709 1.17065 17.6787 1.20976 17.6707 1.20976C17.6627 1.20976 17.6561 0.988878 17.6561 0.718946C17.6561 0.228527 17.656 0.228059 17.5419 0.114068C17.4613 0.033522 17.3894 0 17.2972 0C17.0918 0 12.0755 0.808351 11.8358 0.880078C11.562 0.962029 11.1261 1.17936 10.8939 1.34966C10.6575 1.52297 10.2228 1.98509 10.1093 2.18377C10.0599 2.27017 10.0107 2.34014 9.99992 2.33928C9.98917 2.33842 9.91886 2.24008 9.84367 2.12074C9.76847 2.0014 9.56351 1.76777 9.38816 1.60156C9.02293 1.25526 8.55266 0.988683 8.08321 0.861776C7.76654 0.776156 2.92334 0 2.70592 0C2.6101 0 2.53967 0.0323903 2.45791 0.114068ZM4.84371 1.13159C7.51127 1.55126 7.82798 1.60683 8.07114 1.69811C8.73219 1.94626 9.24856 2.48734 9.48277 3.17744L9.58976 3.49268L9.60055 8.50299L9.61129 13.5132L9.35793 13.2764C8.9825 12.9256 8.44095 12.6356 7.96693 12.5316C7.87122 12.5106 6.78217 12.3338 5.54683 12.1388C4.31149 11.9438 3.26118 11.7754 3.21286 11.7645L3.12497 11.7449V6.29858V0.852332L3.2324 0.873678C3.2915 0.885424 4.01657 1.00148 4.84371 1.13159ZM16.8749 1.39497V1.93139L14.9825 3.82423L13.0901 5.71707L12.3785 7.27805C11.5868 9.01452 11.5731 9.06049 11.7885 9.25276C11.8672 9.323 11.9586 9.36585 12.0297 9.36585C12.0948 9.36585 12.8313 9.05409 13.738 8.64265L15.3319 7.91941L16.1034 7.15032L16.8749 6.38123V9.06302V11.7449L16.787 11.7653C16.7386 11.7765 15.6971 11.9435 14.4725 12.1364C13.2479 12.3292 12.1605 12.505 12.056 12.527C11.5764 12.6278 11.0186 12.9246 10.6345 13.2835L10.3885 13.5132L10.3993 8.50299L10.4101 3.49268L10.5171 3.17744C10.5759 3.00402 10.6916 2.75817 10.7742 2.6311C11.0669 2.18045 11.5928 1.78408 12.0897 1.63961C12.2159 1.60293 16.6531 0.874458 16.826 0.862049C16.8629 0.859395 16.8749 0.989971 16.8749 1.39497ZM18.7882 1.91184C18.9767 2.00788 19.1192 2.19095 19.1783 2.41303C19.2642 2.7353 19.1529 2.98049 18.733 3.39438L18.4369 3.68632L17.8904 3.14142L17.344 2.59649L17.6465 2.29054C17.8129 2.12222 18.0106 1.95145 18.0858 1.91106C18.2714 1.81128 18.5916 1.81163 18.7882 1.91184ZM2.34373 7.69081V12.2597L2.45123 12.3671C2.57185 12.4876 2.25244 12.4282 5.74214 12.979C6.76264 13.14 7.70177 13.2978 7.82915 13.3296C8.37165 13.4649 8.91141 13.8546 9.22524 14.3378C9.30758 14.4645 9.37492 14.5813 9.37492 14.5974C9.37492 14.6135 9.25625 14.5669 9.11125 14.4939C8.7752 14.3248 8.35028 14.1857 7.93509 14.1091C7.65654 14.0576 7.10646 14.0488 4.19489 14.0488H0.781244V8.58537V3.12195H1.56249H2.34373V7.69081ZM16.4842 5.63902L15.0979 7.02443L14.5511 6.47809L14.0042 5.93175L15.3905 4.54634L16.7768 3.16094L17.3237 3.70728L17.8706 4.25362L16.4842 5.63902ZM14.3749 7.45413C14.3749 7.46985 13.1181 8.05662 12.8871 8.14872C12.8704 8.1554 12.9888 7.87442 13.1504 7.52433C13.312 7.17424 13.4695 6.82724 13.5006 6.75317L13.5571 6.61854L13.966 7.02564C14.1909 7.24956 14.3749 7.44238 14.3749 7.45413ZM15.739 13.5775C15.6495 13.667 15.6249 13.7265 15.6249 13.8537C15.6249 13.9808 15.6495 14.0404 15.739 14.1298C15.9907 14.3812 16.4061 14.2092 16.4061 13.8537C16.4061 13.7265 16.3815 13.667 16.2919 13.5775C16.2024 13.488 16.1428 13.4634 16.0155 13.4634C15.8882 13.4634 15.8286 13.488 15.739 13.5775Z" fill="#81CACF"/>
</svg>
